# xmcd CD database file generated by OrangeCD 6.2
#
# Track frame offsets:
#	150
#	2212
#	21647
#	31042
#	45467
#	59177
#	73317
#	83975
#	108672
#	125805
#	138845
#	155832
#	171680
#	181510
#	202267
#	212887
#	224607
#	259212
#	272550
#	294377
#	316832
#
# Disc length: 4397 seconds
#
# Revision: 1
# Processed by: cddbd v1.5.2PL0 Copyright (c) Steve Scherf et al.
# Submitted via: OrangeCD 6.2
#
DISCID=56112b15
DTITLE=Cornelis Vreeswijk - Cornelis På Mosebacke
DYEAR=1979
DGENRE=Folk
TTITLE0=Git Magnusson Presenterar
TTITLE1=Klagovisa Till Felicia
TTITLE2=Felicia Pratar
TTITLE3=Visa Vid Nybroviken
TTITLE4=Balladen Om Den Beväpnade Tiggaren
TTITLE5=Djurgårdsmässa
TTITLE6=Åh, Vad Jag Var Lycklig I Natt
TTITLE7=Ballad Om En Gammal Knarkare
TTITLE8=Deirdres Samba
TTITLE9=Jag Är Fri, Jag Har Sonat Mitt Brott
TTITLE10=Håll Sverige Rent, Sa Polaren Pär
TTITLE11=Balladen Om Den Nya Äktenskapslagen
TTITLE12=Incestvisa
TTITLE13=Ballad Om Censuren
TTITLE14=Polaren Pär Vid Morgonstädningen
TTITLE15=Till Damtidningen Femina
TTITLE16=Getinghonung Provencale
TTITLE17=Mor Har Köpt En Massageapparat
TTITLE18=Lasse Liten Blues
TTITLE19=Ballad Till En Bra Polis
TTITLE20=Jultomten Är Faktiskt Död
EXTD=Live Stockholm 1979
EXTT0=
EXTT1=
EXTT2=
EXTT3=
EXTT4=
EXTT5=
EXTT6=
EXTT7=
EXTT8=
EXTT9=
EXTT10=
EXTT11=
EXTT12=
EXTT13=
EXTT14=
EXTT15=
EXTT16=
EXTT17=
EXTT18=
EXTT19=
EXTT20=
PLAYORDER=
